<svg xmlns="http://www.w3.org/2000/svg" version="1.1" xmlns:xlink="http://www.w3.org/1999/xlink" xmlns:svgjs="http://svgjs.dev/svgjs" width="1440" height="560" preserveAspectRatio="none" viewBox="0 0 1440 560"><g mask="url(&quot;#SvgjsMask1023&quot;)" fill="none"><rect width="1440" height="560" x="0" y="0" fill="rgba(0, 50, 35, 1)"></rect><path d="M-85.15 371.75L-85.15 371.75" stroke="rgba(5, 95, 68, 1)" stroke-width="1.5"></path><path d="M-85.15 371.75L-108.86 491.13" stroke="rgba(5, 95, 68, 1)" stroke-width="1.5"></path><path d="M-85.15 371.75L61.47 360.15" stroke="rgba(5, 95, 68, 1)" stroke-width="1.5"></path><path d="M-85.15 371.75L104.97 542.08" stroke="rgba(5, 95, 68, 1)" stroke-width="1.5"></path><path d="M-85.15 371.75L-61.16 685.44" stroke="rgba(5, 95, 68, 1)" stroke-width="1.5"></path><path d="M-85.15 371.75L240.4 380.61" stroke="rgba(5, 95, 68, 1)" stroke-width="1.5"></path><path d="M-85.15 371.75L78.95 663.15" stroke="rgba(5, 95, 68, 1)" stroke-width="1.5"></path><path d="M-108.86 491.13L-108.86 491.13" stroke="rgba(5, 95, 68, 1)" stroke-width="1.5"></path><path d="M-108.86 491.13L-61.16 685.44" stroke="rgba(5, 95, 68, 1)" stroke-width="1.5"></path><path d="M-108.86 491.13L61.47 360.15" stroke="rgba(5, 95, 68, 1)" stroke-width="1.5"></path><path d="M-108.86 491.13L104.97 542.08" stroke="rgba(5, 95, 68, 1)" stroke-width="1.5"></path><path d="M-61.16 685.44L-61.16 685.44" stroke="rgba(5, 95, 68, 1)" stroke-width="1.5"></path><path d="M-61.16 685.44L78.95 663.15" stroke="rgba(5, 95, 68, 1)" stroke-width="1.5"></path><path d="M61.47 360.15L61.47 360.15" stroke="rgba(5, 95, 68, 1)" stroke-width="1.5"></path><path d="M61.47 360.15L240.4 380.61" stroke="rgba(5, 95, 68, 1)" stroke-width="1.5"></path><path d="M61.47 360.15L104.97 542.08" stroke="rgba(5, 95, 68, 1)" stroke-width="1.5"></path><path d="M104.97 542.08L104.97 542.08" stroke="rgba(5, 95, 68, 1)" stroke-width="1.5"></path><path d="M104.97 542.08L78.95 663.15" stroke="rgba(5, 95, 68, 1)" stroke-width="1.5"></path><path d="M104.97 542.08L255.63 545.25" stroke="rgba(5, 95, 68, 1)" stroke-width="1.5"></path><path d="M78.95 663.15L78.95 663.15" stroke="rgba(5, 95, 68, 1)" stroke-width="1.5"></path><path d="M78.95 663.15L251.07 685.02" stroke="rgba(5, 95, 68, 1)" stroke-width="1.5"></path><path d="M240.4 380.61L240.4 380.61" stroke="rgba(5, 95, 68, 1)" stroke-width="1.5"></path><path d="M240.4 380.61L342.9 360.75" stroke="rgba(5, 95, 68, 1)" stroke-width="1.5"></path><path d="M240.4 380.61L255.63 545.25" stroke="rgba(5, 95, 68, 1)" stroke-width="1.5"></path><path d="M255.63 545.25L255.63 545.25" stroke="rgba(5, 95, 68, 1)" stroke-width="1.5"></path><path d="M255.63 545.25L394.75 550.43" stroke="rgba(5, 95, 68, 1)" stroke-width="1.5"></path><path d="M255.63 545.25L251.07 685.02" stroke="rgba(5, 95, 68, 1)" stroke-width="1.5"></path><path d="M255.63 545.25L342.9 360.75" stroke="rgba(5, 95, 68, 1)" stroke-width="1.5"></path><path d="M255.63 545.25L78.95 663.15" stroke="rgba(5, 95, 68, 1)" stroke-width="1.5"></path><path d="M251.07 685.02L251.07 685.02" stroke="rgba(5, 95, 68, 1)" stroke-width="1.5"></path><path d="M251.07 685.02L405.98 701.46" stroke="rgba(5, 95, 68, 1)" stroke-width="1.5"></path><path d="M342.9 360.75L342.9 360.75" stroke="rgba(5, 95, 68, 1)" stroke-width="1.5"></path><path d="M342.9 360.75L525.91 394.21" stroke="rgba(5, 95, 68, 1)" stroke-width="1.5"></path><path d="M342.9 360.75L394.75 550.43" stroke="rgba(5, 95, 68, 1)" stroke-width="1.5"></path><path d="M394.75 550.43L394.75 550.43" stroke="rgba(5, 95, 68, 1)" stroke-width="1.5"></path><path d="M394.75 550.43L499.87 488.35" stroke="rgba(5, 95, 68, 1)" stroke-width="1.5"></path><path d="M394.75 550.43L405.98 701.46" stroke="rgba(5, 95, 68, 1)" stroke-width="1.5"></path><path d="M394.75 550.43L506 701.65" stroke="rgba(5, 95, 68, 1)" stroke-width="1.5"></path><path d="M405.98 701.46L405.98 701.46" stroke="rgba(5, 95, 68, 1)" stroke-width="1.5"></path><path d="M405.98 701.46L506 701.65" stroke="rgba(5, 95, 68, 1)" stroke-width="1.5"></path><path d="M525.91 394.21L525.91 394.21" stroke="rgba(5, 95, 68, 1)" stroke-width="1.5"></path><path d="M525.91 394.21L499.87 488.35" stroke="rgba(5, 95, 68, 1)" stroke-width="1.5"></path><path d="M525.91 394.21L678.49 379.59" stroke="rgba(5, 95, 68, 1)" stroke-width="1.5"></path><path d="M499.87 488.35L499.87 488.35" stroke="rgba(5, 95, 68, 1)" stroke-width="1.5"></path><path d="M499.87 488.35L683.42 552.37" stroke="rgba(5, 95, 68, 1)" stroke-width="1.5"></path><path d="M499.87 488.35L342.9 360.75" stroke="rgba(5, 95, 68, 1)" stroke-width="1.5"></path><path d="M499.87 488.35L678.49 379.59" stroke="rgba(5, 95, 68, 1)" stroke-width="1.5"></path><path d="M499.87 488.35L506 701.65" stroke="rgba(5, 95, 68, 1)" stroke-width="1.5"></path><path d="M506 701.65L506 701.65" stroke="rgba(5, 95, 68, 1)" stroke-width="1.5"></path><path d="M506 701.65L708.1 666.32" stroke="rgba(5, 95, 68, 1)" stroke-width="1.5"></path><path d="M506 701.65L683.42 552.37" stroke="rgba(5, 95, 68, 1)" stroke-width="1.5"></path><path d="M676.28 254.81L676.28 254.81" stroke="rgba(5, 95, 68, 1)" stroke-width="1.5"></path><path d="M676.28 254.81L678.49 379.59" stroke="rgba(5, 95, 68, 1)" stroke-width="1.5"></path><path d="M676.28 254.81L817.14 257.9" stroke="rgba(5, 95, 68, 1)" stroke-width="1.5"></path><path d="M678.49 379.59L678.49 379.59" stroke="rgba(5, 95, 68, 1)" stroke-width="1.5"></path><path d="M678.49 379.59L683.42 552.37" stroke="rgba(5, 95, 68, 1)" stroke-width="1.5"></path><path d="M678.49 379.59L860.27 392.15" stroke="rgba(5, 95, 68, 1)" stroke-width="1.5"></path><path d="M678.49 379.59L817.14 257.9" stroke="rgba(5, 95, 68, 1)" stroke-width="1.5"></path><path d="M683.42 552.37L683.42 552.37" stroke="rgba(5, 95, 68, 1)" stroke-width="1.5"></path><path d="M683.42 552.37L708.1 666.32" stroke="rgba(5, 95, 68, 1)" stroke-width="1.5"></path><path d="M683.42 552.37L847.39 515.43" stroke="rgba(5, 95, 68, 1)" stroke-width="1.5"></path><path d="M683.42 552.37L836.78 708.21" stroke="rgba(5, 95, 68, 1)" stroke-width="1.5"></path><path d="M683.42 552.37L525.91 394.21" stroke="rgba(5, 95, 68, 1)" stroke-width="1.5"></path><path d="M708.1 666.32L708.1 666.32" stroke="rgba(5, 95, 68, 1)" stroke-width="1.5"></path><path d="M708.1 666.32L836.78 708.21" stroke="rgba(5, 95, 68, 1)" stroke-width="1.5"></path><path d="M708.1 666.32L847.39 515.43" stroke="rgba(5, 95, 68, 1)" stroke-width="1.5"></path><path d="M817.14 257.9L817.14 257.9" stroke="rgba(5, 95, 68, 1)" stroke-width="1.5"></path><path d="M860.27 392.15L860.27 392.15" stroke="rgba(5, 95, 68, 1)" stroke-width="1.5"></path><path d="M860.27 392.15L847.39 515.43" stroke="rgba(5, 95, 68, 1)" stroke-width="1.5"></path><path d="M860.27 392.15L817.14 257.9" stroke="rgba(5, 95, 68, 1)" stroke-width="1.5"></path><path d="M860.27 392.15L999.83 363.85" stroke="rgba(5, 95, 68, 1)" stroke-width="1.5"></path><path d="M860.27 392.15L985.06 505.7" stroke="rgba(5, 95, 68, 1)" stroke-width="1.5"></path><path d="M860.27 392.15L1088.7 404.82" stroke="rgba(5, 95, 68, 1)" stroke-width="1.5"></path><path d="M847.39 515.43L847.39 515.43" stroke="rgba(5, 95, 68, 1)" stroke-width="1.5"></path><path d="M847.39 515.43L985.06 505.7" stroke="rgba(5, 95, 68, 1)" stroke-width="1.5"></path><path d="M847.39 515.43L967.68 637.97" stroke="rgba(5, 95, 68, 1)" stroke-width="1.5"></path><path d="M847.39 515.43L836.78 708.21" stroke="rgba(5, 95, 68, 1)" stroke-width="1.5"></path><path d="M836.78 708.21L836.78 708.21" stroke="rgba(5, 95, 68, 1)" stroke-width="1.5"></path><path d="M836.78 708.21L967.68 637.97" stroke="rgba(5, 95, 68, 1)" stroke-width="1.5"></path><path d="M983.2 -62.53L983.2 -62.53" stroke="rgba(5, 95, 68, 1)" stroke-width="1.5"></path><path d="M983.2 -62.53L1121.63 -88.54" stroke="rgba(5, 95, 68, 1)" stroke-width="1.5"></path><path d="M983.2 -62.53L1109.26 102.48" stroke="rgba(5, 95, 68, 1)" stroke-width="1.5"></path><path d="M983.2 -62.53L982.76 197.34" stroke="rgba(5, 95, 68, 1)" stroke-width="1.5"></path><path d="M983.2 -62.53L1248.92 -57.8" stroke="rgba(5, 95, 68, 1)" stroke-width="1.5"></path><path d="M983.2 -62.53L1238.42 55.43" stroke="rgba(5, 95, 68, 1)" stroke-width="1.5"></path><path d="M982.76 197.34L982.76 197.34" stroke="rgba(5, 95, 68, 1)" stroke-width="1.5"></path><path d="M982.76 197.34L1128.86 216.93" stroke="rgba(5, 95, 68, 1)" stroke-width="1.5"></path><path d="M982.76 197.34L1109.26 102.48" stroke="rgba(5, 95, 68, 1)" stroke-width="1.5"></path><path d="M982.76 197.34L999.83 363.85" stroke="rgba(5, 95, 68, 1)" stroke-width="1.5"></path><path d="M982.76 197.34L817.14 257.9" stroke="rgba(5, 95, 68, 1)" stroke-width="1.5"></path><path d="M982.76 197.34L860.27 392.15" stroke="rgba(5, 95, 68, 1)" stroke-width="1.5"></path><path d="M982.76 197.34L1088.7 404.82" stroke="rgba(5, 95, 68, 1)" stroke-width="1.5"></path><path d="M999.83 363.85L999.83 363.85" stroke="rgba(5, 95, 68, 1)" stroke-width="1.5"></path><path d="M999.83 363.85L1088.7 404.82" stroke="rgba(5, 95, 68, 1)" stroke-width="1.5"></path><path d="M999.83 363.85L985.06 505.7" stroke="rgba(5, 95, 68, 1)" stroke-width="1.5"></path><path d="M999.83 363.85L1128.86 216.93" stroke="rgba(5, 95, 68, 1)" stroke-width="1.5"></path><path d="M985.06 505.7L985.06 505.7" stroke="rgba(5, 95, 68, 1)" stroke-width="1.5"></path><path d="M985.06 505.7L967.68 637.97" stroke="rgba(5, 95, 68, 1)" stroke-width="1.5"></path><path d="M985.06 505.7L1127.5 525.76" stroke="rgba(5, 95, 68, 1)" stroke-width="1.5"></path><path d="M985.06 505.7L1088.7 404.82" stroke="rgba(5, 95, 68, 1)" stroke-width="1.5"></path><path d="M967.68 637.97L967.68 637.97" stroke="rgba(5, 95, 68, 1)" stroke-width="1.5"></path><path d="M967.68 637.97L1096.09 661.82" stroke="rgba(5, 95, 68, 1)" stroke-width="1.5"></path><path d="M1121.63 -88.54L1121.63 -88.54" stroke="rgba(5, 95, 68, 1)" stroke-width="1.5"></path><path d="M1121.63 -88.54L1248.92 -57.8" stroke="rgba(5, 95, 68, 1)" stroke-width="1.5"></path><path d="M1121.63 -88.54L1238.42 55.43" stroke="rgba(5, 95, 68, 1)" stroke-width="1.5"></path><path d="M1121.63 -88.54L1109.26 102.48" stroke="rgba(5, 95, 68, 1)" stroke-width="1.5"></path><path d="M1109.26 102.48L1109.26 102.48" stroke="rgba(5, 95, 68, 1)" stroke-width="1.5"></path><path d="M1109.26 102.48L1128.86 216.93" stroke="rgba(5, 95, 68, 1)" stroke-width="1.5"></path><path d="M1109.26 102.48L1238.42 55.43" stroke="rgba(5, 95, 68, 1)" stroke-width="1.5"></path><path d="M1128.86 216.93L1128.86 216.93" stroke="rgba(5, 95, 68, 1)" stroke-width="1.5"></path><path d="M1128.86 216.93L1270.35 242.08" stroke="rgba(5, 95, 68, 1)" stroke-width="1.5"></path><path d="M1128.86 216.93L1088.7 404.82" stroke="rgba(5, 95, 68, 1)" stroke-width="1.5"></path><path d="M1128.86 216.93L1238.42 55.43" stroke="rgba(5, 95, 68, 1)" stroke-width="1.5"></path><path d="M1088.7 404.82L1088.7 404.82" stroke="rgba(5, 95, 68, 1)" stroke-width="1.5"></path><path d="M1088.7 404.82L1127.5 525.76" stroke="rgba(5, 95, 68, 1)" stroke-width="1.5"></path><path d="M1088.7 404.82L1250.83 515.9" stroke="rgba(5, 95, 68, 1)" stroke-width="1.5"></path><path d="M1088.7 404.82L1288.28 380.79" stroke="rgba(5, 95, 68, 1)" stroke-width="1.5"></path><path d="M1127.5 525.76L1127.5 525.76" stroke="rgba(5, 95, 68, 1)" stroke-width="1.5"></path><path d="M1127.5 525.76L1250.83 515.9" stroke="rgba(5, 95, 68, 1)" stroke-width="1.5"></path><path d="M1127.5 525.76L1096.09 661.82" stroke="rgba(5, 95, 68, 1)" stroke-width="1.5"></path><path d="M1096.09 661.82L1096.09 661.82" stroke="rgba(5, 95, 68, 1)" stroke-width="1.5"></path><path d="M1096.09 661.82L985.06 505.7" stroke="rgba(5, 95, 68, 1)" stroke-width="1.5"></path><path d="M1096.09 661.82L1288.68 650.66" stroke="rgba(5, 95, 68, 1)" stroke-width="1.5"></path><path d="M1096.09 661.82L1250.83 515.9" stroke="rgba(5, 95, 68, 1)" stroke-width="1.5"></path><path d="M1096.09 661.82L1088.7 404.82" stroke="rgba(5, 95, 68, 1)" stroke-width="1.5"></path><path d="M1248.92 -57.8L1248.92 -57.8" stroke="rgba(5, 95, 68, 1)" stroke-width="1.5"></path><path d="M1248.92 -57.8L1238.42 55.43" stroke="rgba(5, 95, 68, 1)" stroke-width="1.5"></path><path d="M1248.92 -57.8L1390.3 -78.84" stroke="rgba(5, 95, 68, 1)" stroke-width="1.5"></path><path d="M1248.92 -57.8L1109.26 102.48" stroke="rgba(5, 95, 68, 1)" stroke-width="1.5"></path><path d="M1248.92 -57.8L1446.33 51.85" stroke="rgba(5, 95, 68, 1)" stroke-width="1.5"></path><path d="M1238.42 55.43L1238.42 55.43" stroke="rgba(5, 95, 68, 1)" stroke-width="1.5"></path><path d="M1238.42 55.43L1270.35 242.08" stroke="rgba(5, 95, 68, 1)" stroke-width="1.5"></path><path d="M1270.35 242.08L1270.35 242.08" stroke="rgba(5, 95, 68, 1)" stroke-width="1.5"></path><path d="M1270.35 242.08L1392.39 228.95" stroke="rgba(5, 95, 68, 1)" stroke-width="1.5"></path><path d="M1270.35 242.08L1288.28 380.79" stroke="rgba(5, 95, 68, 1)" stroke-width="1.5"></path><path d="M1270.35 242.08L1109.26 102.48" stroke="rgba(5, 95, 68, 1)" stroke-width="1.5"></path><path d="M1270.35 242.08L1445.41 388.21" stroke="rgba(5, 95, 68, 1)" stroke-width="1.5"></path><path d="M1288.28 380.79L1288.28 380.79" stroke="rgba(5, 95, 68, 1)" stroke-width="1.5"></path><path d="M1288.28 380.79L1250.83 515.9" stroke="rgba(5, 95, 68, 1)" stroke-width="1.5"></path><path d="M1288.28 380.79L1445.41 388.21" stroke="rgba(5, 95, 68, 1)" stroke-width="1.5"></path><path d="M1288.28 380.79L1392.39 228.95" stroke="rgba(5, 95, 68, 1)" stroke-width="1.5"></path><path d="M1250.83 515.9L1250.83 515.9" stroke="rgba(5, 95, 68, 1)" stroke-width="1.5"></path><path d="M1250.83 515.9L1288.68 650.66" stroke="rgba(5, 95, 68, 1)" stroke-width="1.5"></path><path d="M1250.83 515.9L1458.61 510.55" stroke="rgba(5, 95, 68, 1)" stroke-width="1.5"></path><path d="M1288.68 650.66L1288.68 650.66" stroke="rgba(5, 95, 68, 1)" stroke-width="1.5"></path><path d="M1288.68 650.66L1418.99 678.74" stroke="rgba(5, 95, 68, 1)" stroke-width="1.5"></path><path d="M1390.3 -78.84L1390.3 -78.84" stroke="rgba(5, 95, 68, 1)" stroke-width="1.5"></path><path d="M1390.3 -78.84L1446.33 51.85" stroke="rgba(5, 95, 68, 1)" stroke-width="1.5"></path><path d="M1390.3 -78.84L1549.94 -48.07" stroke="rgba(5, 95, 68, 1)" stroke-width="1.5"></path><path d="M1390.3 -78.84L1238.42 55.43" stroke="rgba(5, 95, 68, 1)" stroke-width="1.5"></path><path d="M1446.33 51.85L1446.33 51.85" stroke="rgba(5, 95, 68, 1)" stroke-width="1.5"></path><path d="M1446.33 51.85L1549.94 -48.07" stroke="rgba(5, 95, 68, 1)" stroke-width="1.5"></path><path d="M1446.33 51.85L1392.39 228.95" stroke="rgba(5, 95, 68, 1)" stroke-width="1.5"></path><path d="M1446.33 51.85L1539.55 223.76" stroke="rgba(5, 95, 68, 1)" stroke-width="1.5"></path><path d="M1446.33 51.85L1238.42 55.43" stroke="rgba(5, 95, 68, 1)" stroke-width="1.5"></path><path d="M1392.39 228.95L1392.39 228.95" stroke="rgba(5, 95, 68, 1)" stroke-width="1.5"></path><path d="M1392.39 228.95L1539.55 223.76" stroke="rgba(5, 95, 68, 1)" stroke-width="1.5"></path><path d="M1392.39 228.95L1445.41 388.21" stroke="rgba(5, 95, 68, 1)" stroke-width="1.5"></path><path d="M1445.41 388.21L1445.41 388.21" stroke="rgba(5, 95, 68, 1)" stroke-width="1.5"></path><path d="M1445.41 388.21L1458.61 510.55" stroke="rgba(5, 95, 68, 1)" stroke-width="1.5"></path><path d="M1445.41 388.21L1597.18 396.16" stroke="rgba(5, 95, 68, 1)" stroke-width="1.5"></path><path d="M1458.61 510.55L1458.61 510.55" stroke="rgba(5, 95, 68, 1)" stroke-width="1.5"></path><path d="M1458.61 510.55L1572.06 558.84" stroke="rgba(5, 95, 68, 1)" stroke-width="1.5"></path><path d="M1458.61 510.55L1418.99 678.74" stroke="rgba(5, 95, 68, 1)" stroke-width="1.5"></path><path d="M1458.61 510.55L1597.18 396.16" stroke="rgba(5, 95, 68, 1)" stroke-width="1.5"></path><path d="M1418.99 678.74L1418.99 678.74" stroke="rgba(5, 95, 68, 1)" stroke-width="1.5"></path><path d="M1418.99 678.74L1549.54 710.12" stroke="rgba(5, 95, 68, 1)" stroke-width="1.5"></path><path d="M1418.99 678.74L1572.06 558.84" stroke="rgba(5, 95, 68, 1)" stroke-width="1.5"></path><path d="M1549.94 -48.07L1549.94 -48.07" stroke="rgba(5, 95, 68, 1)" stroke-width="1.5"></path><path d="M1549.94 -48.07L1539.55 223.76" stroke="rgba(5, 95, 68, 1)" stroke-width="1.5"></path><path d="M1539.55 223.76L1539.55 223.76" stroke="rgba(5, 95, 68, 1)" stroke-width="1.5"></path><path d="M1539.55 223.76L1597.18 396.16" stroke="rgba(5, 95, 68, 1)" stroke-width="1.5"></path><path d="M1539.55 223.76L1445.41 388.21" stroke="rgba(5, 95, 68, 1)" stroke-width="1.5"></path><path d="M1539.55 223.76L1270.35 242.08" stroke="rgba(5, 95, 68, 1)" stroke-width="1.5"></path><path d="M1597.18 396.16L1597.18 396.16" stroke="rgba(5, 95, 68, 1)" stroke-width="1.5"></path><path d="M1597.18 396.16L1572.06 558.84" stroke="rgba(5, 95, 68, 1)" stroke-width="1.5"></path><path d="M1572.06 558.84L1572.06 558.84" stroke="rgba(5, 95, 68, 1)" stroke-width="1.5"></path><path d="M1572.06 558.84L1549.54 710.12" stroke="rgba(5, 95, 68, 1)" stroke-width="1.5"></path><path d="M1549.54 710.12L1549.54 710.12" stroke="rgba(5, 95, 68, 1)" stroke-width="1.5"></path><path d="M1549.54 710.12L1458.61 510.55" stroke="rgba(5, 95, 68, 1)" stroke-width="1.5"></path><path d="M1549.54 710.12L1288.68 650.66" stroke="rgba(5, 95, 68, 1)" stroke-width="1.5"></path><path d="M1549.54 710.12L1597.18 396.16" stroke="rgba(5, 95, 68, 1)" stroke-width="1.5"></path><circle r="5" cx="-85.15" cy="371.75" fill="rgba(5, 95, 68, 1)"></circle><circle r="5" cx="-108.86" cy="491.13" fill="rgba(5, 95, 68, 1)"></circle><circle r="5" cx="-61.16" cy="685.44" fill="rgba(5, 95, 68, 1)"></circle><circle r="5" cx="61.47" cy="360.15" fill="rgba(5, 95, 68, 1)"></circle><circle r="5" cx="104.97" cy="542.08" fill="rgba(5, 95, 68, 1)"></circle><circle r="5" cx="78.95" cy="663.15" fill="rgba(5, 95, 68, 1)"></circle><circle r="5" cx="240.4" cy="380.61" fill="rgba(5, 95, 68, 1)"></circle><circle r="5" cx="255.63" cy="545.25" fill="rgba(5, 95, 68, 1)"></circle><circle r="5" cx="251.07" cy="685.02" fill="rgba(5, 95, 68, 1)"></circle><circle r="5" cx="342.9" cy="360.75" fill="rgba(5, 95, 68, 1)"></circle><circle r="5" cx="394.75" cy="550.43" fill="rgba(5, 95, 68, 1)"></circle><circle r="5" cx="405.98" cy="701.46" fill="rgba(5, 95, 68, 1)"></circle><circle r="5" cx="525.91" cy="394.21" fill="rgba(5, 95, 68, 1)"></circle><circle r="5" cx="499.87" cy="488.35" fill="rgba(5, 95, 68, 1)"></circle><circle r="5" cx="506" cy="701.65" fill="rgba(5, 95, 68, 1)"></circle><circle r="5" cx="676.28" cy="254.81" fill="rgba(5, 95, 68, 1)"></circle><circle r="5" cx="678.49" cy="379.59" fill="rgba(5, 95, 68, 1)"></circle><circle r="5" cx="683.42" cy="552.37" fill="rgba(5, 95, 68, 1)"></circle><circle r="5" cx="708.1" cy="666.32" fill="rgba(5, 95, 68, 1)"></circle><circle r="5" cx="817.14" cy="257.9" fill="rgba(5, 95, 68, 1)"></circle><circle r="5" cx="860.27" cy="392.15" fill="rgba(5, 95, 68, 1)"></circle><circle r="5" cx="847.39" cy="515.43" fill="rgba(5, 95, 68, 1)"></circle><circle r="5" cx="836.78" cy="708.21" fill="rgba(5, 95, 68, 1)"></circle><circle r="5" cx="983.2" cy="-62.53" fill="rgba(5, 95, 68, 1)"></circle><circle r="5" cx="982.76" cy="197.34" fill="rgba(5, 95, 68, 1)"></circle><circle r="5" cx="999.83" cy="363.85" fill="rgba(5, 95, 68, 1)"></circle><circle r="5" cx="985.06" cy="505.7" fill="rgba(5, 95, 68, 1)"></circle><circle r="5" cx="967.68" cy="637.97" fill="rgba(5, 95, 68, 1)"></circle><circle r="5" cx="1121.63" cy="-88.54" fill="rgba(5, 95, 68, 1)"></circle><circle r="5" cx="1109.26" cy="102.48" fill="rgba(5, 95, 68, 1)"></circle><circle r="5" cx="1128.86" cy="216.93" fill="rgba(5, 95, 68, 1)"></circle><circle r="5" cx="1088.7" cy="404.82" fill="rgba(5, 95, 68, 1)"></circle><circle r="5" cx="1127.5" cy="525.76" fill="rgba(5, 95, 68, 1)"></circle><circle r="5" cx="1096.09" cy="661.82" fill="rgba(5, 95, 68, 1)"></circle><circle r="5" cx="1248.92" cy="-57.8" fill="rgba(5, 95, 68, 1)"></circle><circle r="5" cx="1238.42" cy="55.43" fill="rgba(5, 95, 68, 1)"></circle><circle r="5" cx="1270.35" cy="242.08" fill="rgba(5, 95, 68, 1)"></circle><circle r="5" cx="1288.28" cy="380.79" fill="rgba(5, 95, 68, 1)"></circle><circle r="5" cx="1250.83" cy="515.9" fill="rgba(5, 95, 68, 1)"></circle><circle r="5" cx="1288.68" cy="650.66" fill="rgba(5, 95, 68, 1)"></circle><circle r="5" cx="1390.3" cy="-78.84" fill="rgba(5, 95, 68, 1)"></circle><circle r="5" cx="1446.33" cy="51.85" fill="rgba(5, 95, 68, 1)"></circle><circle r="5" cx="1392.39" cy="228.95" fill="rgba(5, 95, 68, 1)"></circle><circle r="5" cx="1445.41" cy="388.21" fill="rgba(5, 95, 68, 1)"></circle><circle r="5" cx="1458.61" cy="510.55" fill="rgba(5, 95, 68, 1)"></circle><circle r="5" cx="1418.99" cy="678.74" fill="rgba(5, 95, 68, 1)"></circle><circle r="5" cx="1549.94" cy="-48.07" fill="rgba(5, 95, 68, 1)"></circle><circle r="5" cx="1539.55" cy="223.76" fill="rgba(5, 95, 68, 1)"></circle><circle r="5" cx="1597.18" cy="396.16" fill="rgba(5, 95, 68, 1)"></circle><circle r="5" cx="1572.06" cy="558.84" fill="rgba(5, 95, 68, 1)"></circle><circle r="5" cx="1549.54" cy="710.12" fill="rgba(5, 95, 68, 1)"></circle><path d="M-40.63 528.64L-40.63 528.64" stroke="hsl(160.39999999999998, 83.2%, 48.7%)" stroke-width="1.5"></path><path d="M-40.63 528.64L107.72 533.73" stroke="hsl(160.39999999999998, 83.2%, 48.7%)" stroke-width="1.5"></path><path d="M-40.63 528.64L90.01 652.77" stroke="hsl(160.39999999999998, 83.2%, 48.7%)" stroke-width="1.5"></path><path d="M-51.08 710.28L-51.08 710.28" stroke="hsl(160.39999999999998, 83.2%, 48.7%)" stroke-width="1.5"></path><path d="M-51.08 710.28L90.01 652.77" stroke="hsl(160.39999999999998, 83.2%, 48.7%)" stroke-width="1.5"></path><path d="M-51.08 710.28L-40.63 528.64" stroke="hsl(160.39999999999998, 83.2%, 48.7%)" stroke-width="1.5"></path><path d="M-51.08 710.28L107.72 533.73" stroke="hsl(160.39999999999998, 83.2%, 48.7%)" stroke-width="1.5"></path><path d="M-51.08 710.28L250.26 677.34" stroke="hsl(160.39999999999998, 83.2%, 48.7%)" stroke-width="1.5"></path><path d="M-51.08 710.28L230.78 552.68" stroke="hsl(160.39999999999998, 83.2%, 48.7%)" stroke-width="1.5"></path><path d="M107.72 533.73L107.72 533.73" stroke="hsl(160.39999999999998, 83.2%, 48.7%)" stroke-width="1.5"></path><path d="M107.72 533.73L90.01 652.77" stroke="hsl(160.39999999999998, 83.2%, 48.7%)" stroke-width="1.5"></path><path d="M107.72 533.73L230.78 552.68" stroke="hsl(160.39999999999998, 83.2%, 48.7%)" stroke-width="1.5"></path><path d="M495.62 409.15L495.62 409.15" stroke="hsl(160.39999999999998, 83.2%, 48.7%)" stroke-width="1.5"></path><path d="M495.62 409.15L390.51 557.81" stroke="hsl(160.39999999999998, 83.2%, 48.7%)" stroke-width="1.5"></path><path d="M495.62 409.15L696.98 550.58" stroke="hsl(160.39999999999998, 83.2%, 48.7%)" stroke-width="1.5"></path><path d="M495.62 409.15L350.19 662.57" stroke="hsl(160.39999999999998, 83.2%, 48.7%)" stroke-width="1.5"></path><path d="M495.62 409.15L528.31 706.21" stroke="hsl(160.39999999999998, 83.2%, 48.7%)" stroke-width="1.5"></path><path d="M495.62 409.15L687.74 640.24" stroke="hsl(160.39999999999998, 83.2%, 48.7%)" stroke-width="1.5"></path><path d="M1261 -60.81L1261 -60.81" stroke="hsl(160.39999999999998, 83.2%, 48.7%)" stroke-width="1.5"></path><path d="M1261 -60.81L1266.27 56.23" stroke="hsl(160.39999999999998, 83.2%, 48.7%)" stroke-width="1.5"></path><path d="M1261 -60.81L1393.2 -87.75" stroke="hsl(160.39999999999998, 83.2%, 48.7%)" stroke-width="1.5"></path><path d="M1261 -60.81L1445.75 88.21" stroke="hsl(160.39999999999998, 83.2%, 48.7%)" stroke-width="1.5"></path><path d="M1261 -60.81L1295.37 253.52" stroke="hsl(160.39999999999998, 83.2%, 48.7%)" stroke-width="1.5"></path><path d="M1261 -60.81L1388.37 235.82" stroke="hsl(160.39999999999998, 83.2%, 48.7%)" stroke-width="1.5"></path><path d="M1261 -60.81L1097.02 220.06" stroke="hsl(160.39999999999998, 83.2%, 48.7%)" stroke-width="1.5"></path><path d="M1266.27 56.23L1266.27 56.23" stroke="hsl(160.39999999999998, 83.2%, 48.7%)" stroke-width="1.5"></path><path d="M1266.27 56.23L1445.75 88.21" stroke="hsl(160.39999999999998, 83.2%, 48.7%)" stroke-width="1.5"></path><path d="M1266.27 56.23L1393.2 -87.75" stroke="hsl(160.39999999999998, 83.2%, 48.7%)" stroke-width="1.5"></path><path d="M1266.27 56.23L1295.37 253.52" stroke="hsl(160.39999999999998, 83.2%, 48.7%)" stroke-width="1.5"></path><path d="M1266.27 56.23L1388.37 235.82" stroke="hsl(160.39999999999998, 83.2%, 48.7%)" stroke-width="1.5"></path><path d="M1266.27 56.23L1097.02 220.06" stroke="hsl(160.39999999999998, 83.2%, 48.7%)" stroke-width="1.5"></path><path d="M90.01 652.77L90.01 652.77" stroke="hsl(160.39999999999998, 83.2%, 48.7%)" stroke-width="1.5"></path><path d="M90.01 652.77L250.26 677.34" stroke="hsl(160.39999999999998, 83.2%, 48.7%)" stroke-width="1.5"></path><path d="M90.01 652.77L230.78 552.68" stroke="hsl(160.39999999999998, 83.2%, 48.7%)" stroke-width="1.5"></path><path d="M230.78 552.68L230.78 552.68" stroke="hsl(160.39999999999998, 83.2%, 48.7%)" stroke-width="1.5"></path><path d="M230.78 552.68L250.26 677.34" stroke="hsl(160.39999999999998, 83.2%, 48.7%)" stroke-width="1.5"></path><path d="M230.78 552.68L390.51 557.81" stroke="hsl(160.39999999999998, 83.2%, 48.7%)" stroke-width="1.5"></path><path d="M250.26 677.34L250.26 677.34" stroke="hsl(160.39999999999998, 83.2%, 48.7%)" stroke-width="1.5"></path><path d="M250.26 677.34L350.19 662.57" stroke="hsl(160.39999999999998, 83.2%, 48.7%)" stroke-width="1.5"></path><path d="M390.51 557.81L390.51 557.81" stroke="hsl(160.39999999999998, 83.2%, 48.7%)" stroke-width="1.5"></path><path d="M390.51 557.81L350.19 662.57" stroke="hsl(160.39999999999998, 83.2%, 48.7%)" stroke-width="1.5"></path><path d="M350.19 662.57L350.19 662.57" stroke="hsl(160.39999999999998, 83.2%, 48.7%)" stroke-width="1.5"></path><path d="M350.19 662.57L230.78 552.68" stroke="hsl(160.39999999999998, 83.2%, 48.7%)" stroke-width="1.5"></path><path d="M350.19 662.57L528.31 706.21" stroke="hsl(160.39999999999998, 83.2%, 48.7%)" stroke-width="1.5"></path><path d="M528.31 706.21L528.31 706.21" stroke="hsl(160.39999999999998, 83.2%, 48.7%)" stroke-width="1.5"></path><path d="M528.31 706.21L687.74 640.24" stroke="hsl(160.39999999999998, 83.2%, 48.7%)" stroke-width="1.5"></path><path d="M528.31 706.21L390.51 557.81" stroke="hsl(160.39999999999998, 83.2%, 48.7%)" stroke-width="1.5"></path><path d="M528.31 706.21L696.98 550.58" stroke="hsl(160.39999999999998, 83.2%, 48.7%)" stroke-width="1.5"></path><path d="M528.31 706.21L250.26 677.34" stroke="hsl(160.39999999999998, 83.2%, 48.7%)" stroke-width="1.5"></path><path d="M696.98 550.58L696.98 550.58" stroke="hsl(160.39999999999998, 83.2%, 48.7%)" stroke-width="1.5"></path><path d="M696.98 550.58L687.74 640.24" stroke="hsl(160.39999999999998, 83.2%, 48.7%)" stroke-width="1.5"></path><path d="M696.98 550.58L811.8 653.85" stroke="hsl(160.39999999999998, 83.2%, 48.7%)" stroke-width="1.5"></path><path d="M696.98 550.58L842.81 491.5" stroke="hsl(160.39999999999998, 83.2%, 48.7%)" stroke-width="1.5"></path><path d="M687.74 640.24L687.74 640.24" stroke="hsl(160.39999999999998, 83.2%, 48.7%)" stroke-width="1.5"></path><path d="M687.74 640.24L811.8 653.85" stroke="hsl(160.39999999999998, 83.2%, 48.7%)" stroke-width="1.5"></path><path d="M687.74 640.24L842.81 491.5" stroke="hsl(160.39999999999998, 83.2%, 48.7%)" stroke-width="1.5"></path><path d="M687.74 640.24L940.22 659.49" stroke="hsl(160.39999999999998, 83.2%, 48.7%)" stroke-width="1.5"></path><path d="M842.81 491.5L842.81 491.5" stroke="hsl(160.39999999999998, 83.2%, 48.7%)" stroke-width="1.5"></path><path d="M842.81 491.5L811.8 653.85" stroke="hsl(160.39999999999998, 83.2%, 48.7%)" stroke-width="1.5"></path><path d="M842.81 491.5L961.38 367.52" stroke="hsl(160.39999999999998, 83.2%, 48.7%)" stroke-width="1.5"></path><path d="M811.8 653.85L811.8 653.85" stroke="hsl(160.39999999999998, 83.2%, 48.7%)" stroke-width="1.5"></path><path d="M811.8 653.85L940.22 659.49" stroke="hsl(160.39999999999998, 83.2%, 48.7%)" stroke-width="1.5"></path><path d="M811.8 653.85L528.31 706.21" stroke="hsl(160.39999999999998, 83.2%, 48.7%)" stroke-width="1.5"></path><path d="M961.38 367.52L961.38 367.52" stroke="hsl(160.39999999999998, 83.2%, 48.7%)" stroke-width="1.5"></path><path d="M961.38 367.52L1097.02 220.06" stroke="hsl(160.39999999999998, 83.2%, 48.7%)" stroke-width="1.5"></path><path d="M961.38 367.52L1151.39 505.5" stroke="hsl(160.39999999999998, 83.2%, 48.7%)" stroke-width="1.5"></path><path d="M940.22 659.49L940.22 659.49" stroke="hsl(160.39999999999998, 83.2%, 48.7%)" stroke-width="1.5"></path><path d="M940.22 659.49L1130.41 653.7" stroke="hsl(160.39999999999998, 83.2%, 48.7%)" stroke-width="1.5"></path><path d="M940.22 659.49L842.81 491.5" stroke="hsl(160.39999999999998, 83.2%, 48.7%)" stroke-width="1.5"></path><path d="M940.22 659.49L1151.39 505.5" stroke="hsl(160.39999999999998, 83.2%, 48.7%)" stroke-width="1.5"></path><path d="M940.22 659.49L696.98 550.58" stroke="hsl(160.39999999999998, 83.2%, 48.7%)" stroke-width="1.5"></path><path d="M1097.02 220.06L1097.02 220.06" stroke="hsl(160.39999999999998, 83.2%, 48.7%)" stroke-width="1.5"></path><path d="M1097.02 220.06L1295.37 253.52" stroke="hsl(160.39999999999998, 83.2%, 48.7%)" stroke-width="1.5"></path><path d="M1097.02 220.06L1282.93 353.71" stroke="hsl(160.39999999999998, 83.2%, 48.7%)" stroke-width="1.5"></path><path d="M1151.39 505.5L1151.39 505.5" stroke="hsl(160.39999999999998, 83.2%, 48.7%)" stroke-width="1.5"></path><path d="M1151.39 505.5L1259.23 546.13" stroke="hsl(160.39999999999998, 83.2%, 48.7%)" stroke-width="1.5"></path><path d="M1151.39 505.5L1130.41 653.7" stroke="hsl(160.39999999999998, 83.2%, 48.7%)" stroke-width="1.5"></path><path d="M1151.39 505.5L1282.93 353.71" stroke="hsl(160.39999999999998, 83.2%, 48.7%)" stroke-width="1.5"></path><path d="M1151.39 505.5L1277.64 696.53" stroke="hsl(160.39999999999998, 83.2%, 48.7%)" stroke-width="1.5"></path><path d="M1130.41 653.7L1130.41 653.7" stroke="hsl(160.39999999999998, 83.2%, 48.7%)" stroke-width="1.5"></path><path d="M1130.41 653.7L1277.64 696.53" stroke="hsl(160.39999999999998, 83.2%, 48.7%)" stroke-width="1.5"></path><path d="M1130.41 653.7L1259.23 546.13" stroke="hsl(160.39999999999998, 83.2%, 48.7%)" stroke-width="1.5"></path><path d="M1130.41 653.7L1433.68 639.09" stroke="hsl(160.39999999999998, 83.2%, 48.7%)" stroke-width="1.5"></path><path d="M1295.37 253.52L1295.37 253.52" stroke="hsl(160.39999999999998, 83.2%, 48.7%)" stroke-width="1.5"></path><path d="M1295.37 253.52L1388.37 235.82" stroke="hsl(160.39999999999998, 83.2%, 48.7%)" stroke-width="1.5"></path><path d="M1295.37 253.52L1282.93 353.71" stroke="hsl(160.39999999999998, 83.2%, 48.7%)" stroke-width="1.5"></path><path d="M1295.37 253.52L1445.75 88.21" stroke="hsl(160.39999999999998, 83.2%, 48.7%)" stroke-width="1.5"></path><path d="M1295.37 253.52L1546.19 212.98" stroke="hsl(160.39999999999998, 83.2%, 48.7%)" stroke-width="1.5"></path><path d="M1282.93 353.71L1282.93 353.71" stroke="hsl(160.39999999999998, 83.2%, 48.7%)" stroke-width="1.5"></path><path d="M1282.93 353.71L1388.37 235.82" stroke="hsl(160.39999999999998, 83.2%, 48.7%)" stroke-width="1.5"></path><path d="M1282.93 353.71L1259.23 546.13" stroke="hsl(160.39999999999998, 83.2%, 48.7%)" stroke-width="1.5"></path><path d="M1282.93 353.71L1560.83 390.7" stroke="hsl(160.39999999999998, 83.2%, 48.7%)" stroke-width="1.5"></path><path d="M1259.23 546.13L1259.23 546.13" stroke="hsl(160.39999999999998, 83.2%, 48.7%)" stroke-width="1.5"></path><path d="M1259.23 546.13L1277.64 696.53" stroke="hsl(160.39999999999998, 83.2%, 48.7%)" stroke-width="1.5"></path><path d="M1259.23 546.13L1433.68 639.09" stroke="hsl(160.39999999999998, 83.2%, 48.7%)" stroke-width="1.5"></path><path d="M1259.23 546.13L1547.65 495.05" stroke="hsl(160.39999999999998, 83.2%, 48.7%)" stroke-width="1.5"></path><path d="M1277.64 696.53L1277.64 696.53" stroke="hsl(160.39999999999998, 83.2%, 48.7%)" stroke-width="1.5"></path><path d="M1277.64 696.53L1433.68 639.09" stroke="hsl(160.39999999999998, 83.2%, 48.7%)" stroke-width="1.5"></path><path d="M1277.64 696.53L1602.68 701.98" stroke="hsl(160.39999999999998, 83.2%, 48.7%)" stroke-width="1.5"></path><path d="M1277.64 696.53L1547.65 495.05" stroke="hsl(160.39999999999998, 83.2%, 48.7%)" stroke-width="1.5"></path><path d="M1393.2 -87.75L1393.2 -87.75" stroke="hsl(160.39999999999998, 83.2%, 48.7%)" stroke-width="1.5"></path><path d="M1393.2 -87.75L1445.75 88.21" stroke="hsl(160.39999999999998, 83.2%, 48.7%)" stroke-width="1.5"></path><path d="M1445.75 88.21L1445.75 88.21" stroke="hsl(160.39999999999998, 83.2%, 48.7%)" stroke-width="1.5"></path><path d="M1445.75 88.21L1388.37 235.82" stroke="hsl(160.39999999999998, 83.2%, 48.7%)" stroke-width="1.5"></path><path d="M1445.75 88.21L1546.19 212.98" stroke="hsl(160.39999999999998, 83.2%, 48.7%)" stroke-width="1.5"></path><path d="M1445.75 88.21L1609.18 84.14" stroke="hsl(160.39999999999998, 83.2%, 48.7%)" stroke-width="1.5"></path><path d="M1388.37 235.82L1388.37 235.82" stroke="hsl(160.39999999999998, 83.2%, 48.7%)" stroke-width="1.5"></path><path d="M1433.68 639.09L1433.68 639.09" stroke="hsl(160.39999999999998, 83.2%, 48.7%)" stroke-width="1.5"></path><path d="M1433.68 639.09L1602.68 701.98" stroke="hsl(160.39999999999998, 83.2%, 48.7%)" stroke-width="1.5"></path><path d="M1433.68 639.09L1547.65 495.05" stroke="hsl(160.39999999999998, 83.2%, 48.7%)" stroke-width="1.5"></path><path d="M1433.68 639.09L1560.83 390.7" stroke="hsl(160.39999999999998, 83.2%, 48.7%)" stroke-width="1.5"></path><path d="M1593.61 -91.53L1593.61 -91.53" stroke="hsl(160.39999999999998, 83.2%, 48.7%)" stroke-width="1.5"></path><path d="M1593.61 -91.53L1609.18 84.14" stroke="hsl(160.39999999999998, 83.2%, 48.7%)" stroke-width="1.5"></path><path d="M1593.61 -91.53L1393.2 -87.75" stroke="hsl(160.39999999999998, 83.2%, 48.7%)" stroke-width="1.5"></path><path d="M1593.61 -91.53L1445.75 88.21" stroke="hsl(160.39999999999998, 83.2%, 48.7%)" stroke-width="1.5"></path><path d="M1593.61 -91.53L1546.19 212.98" stroke="hsl(160.39999999999998, 83.2%, 48.7%)" stroke-width="1.5"></path><path d="M1593.61 -91.53L1261 -60.81" stroke="hsl(160.39999999999998, 83.2%, 48.7%)" stroke-width="1.5"></path><path d="M1593.61 -91.53L1266.27 56.23" stroke="hsl(160.39999999999998, 83.2%, 48.7%)" stroke-width="1.5"></path><path d="M1609.18 84.14L1609.18 84.14" stroke="hsl(160.39999999999998, 83.2%, 48.7%)" stroke-width="1.5"></path><path d="M1609.18 84.14L1546.19 212.98" stroke="hsl(160.39999999999998, 83.2%, 48.7%)" stroke-width="1.5"></path><path d="M1609.18 84.14L1388.37 235.82" stroke="hsl(160.39999999999998, 83.2%, 48.7%)" stroke-width="1.5"></path><path d="M1546.19 212.98L1546.19 212.98" stroke="hsl(160.39999999999998, 83.2%, 48.7%)" stroke-width="1.5"></path><path d="M1546.19 212.98L1388.37 235.82" stroke="hsl(160.39999999999998, 83.2%, 48.7%)" stroke-width="1.5"></path><path d="M1546.19 212.98L1560.83 390.7" stroke="hsl(160.39999999999998, 83.2%, 48.7%)" stroke-width="1.5"></path><path d="M1560.83 390.7L1560.83 390.7" stroke="hsl(160.39999999999998, 83.2%, 48.7%)" stroke-width="1.5"></path><path d="M1560.83 390.7L1547.65 495.05" stroke="hsl(160.39999999999998, 83.2%, 48.7%)" stroke-width="1.5"></path><path d="M1560.83 390.7L1388.37 235.82" stroke="hsl(160.39999999999998, 83.2%, 48.7%)" stroke-width="1.5"></path><path d="M1560.83 390.7L1295.37 253.52" stroke="hsl(160.39999999999998, 83.2%, 48.7%)" stroke-width="1.5"></path><path d="M1547.65 495.05L1547.65 495.05" stroke="hsl(160.39999999999998, 83.2%, 48.7%)" stroke-width="1.5"></path><path d="M1547.65 495.05L1602.68 701.98" stroke="hsl(160.39999999999998, 83.2%, 48.7%)" stroke-width="1.5"></path><path d="M1602.68 701.98L1602.68 701.98" stroke="hsl(160.39999999999998, 83.2%, 48.7%)" stroke-width="1.5"></path><path d="M1602.68 701.98L1560.83 390.7" stroke="hsl(160.39999999999998, 83.2%, 48.7%)" stroke-width="1.5"></path><circle r="25" cx="-40.63" cy="528.64" fill="url(&quot;#SvgjsRadialGradient1024&quot;)"></circle><circle r="25" cx="-51.08" cy="710.28" fill="url(&quot;#SvgjsRadialGradient1024&quot;)"></circle><circle r="25" cx="107.72" cy="533.73" fill="url(&quot;#SvgjsRadialGradient1024&quot;)"></circle><circle r="25" cx="495.62" cy="409.15" fill="url(&quot;#SvgjsRadialGradient1024&quot;)"></circle><circle r="25" cx="1261" cy="-60.81" fill="url(&quot;#SvgjsRadialGradient1024&quot;)"></circle><circle r="25" cx="1266.27" cy="56.23" fill="url(&quot;#SvgjsRadialGradient1024&quot;)"></circle><circle r="5" cx="90.01" cy="652.77" fill="#88d7bd"></circle><circle r="5" cx="230.78" cy="552.68" fill="#88d7bd"></circle><circle r="5" cx="250.26" cy="677.34" fill="#88d7bd"></circle><circle r="5" cx="390.51" cy="557.81" fill="#88d7bd"></circle><circle r="5" cx="350.19" cy="662.57" fill="#88d7bd"></circle><circle r="5" cx="528.31" cy="706.21" fill="#88d7bd"></circle><circle r="5" cx="696.98" cy="550.58" fill="#88d7bd"></circle><circle r="5" cx="687.74" cy="640.24" fill="#88d7bd"></circle><circle r="5" cx="842.81" cy="491.5" fill="#88d7bd"></circle><circle r="5" cx="811.8" cy="653.85" fill="#88d7bd"></circle><circle r="5" cx="961.38" cy="367.52" fill="#88d7bd"></circle><circle r="5" cx="940.22" cy="659.49" fill="#88d7bd"></circle><circle r="5" cx="1097.02" cy="220.06" fill="#88d7bd"></circle><circle r="5" cx="1151.39" cy="505.5" fill="#88d7bd"></circle><circle r="5" cx="1130.41" cy="653.7" fill="#88d7bd"></circle><circle r="5" cx="1295.37" cy="253.52" fill="#88d7bd"></circle><circle r="5" cx="1282.93" cy="353.71" fill="#88d7bd"></circle><circle r="5" cx="1259.23" cy="546.13" fill="#88d7bd"></circle><circle r="5" cx="1277.64" cy="696.53" fill="#88d7bd"></circle><circle r="5" cx="1393.2" cy="-87.75" fill="#88d7bd"></circle><circle r="5" cx="1445.75" cy="88.21" fill="#88d7bd"></circle><circle r="5" cx="1388.37" cy="235.82" fill="#88d7bd"></circle><circle r="5" cx="1433.68" cy="639.09" fill="#88d7bd"></circle><circle r="5" cx="1593.61" cy="-91.53" fill="#88d7bd"></circle><circle r="5" cx="1609.18" cy="84.14" fill="#88d7bd"></circle><circle r="5" cx="1546.19" cy="212.98" fill="#88d7bd"></circle><circle r="5" cx="1560.83" cy="390.7" fill="#88d7bd"></circle><circle r="5" cx="1547.65" cy="495.05" fill="#88d7bd"></circle><circle r="5" cx="1602.68" cy="701.98" fill="#88d7bd"></circle></g><defs><mask id="SvgjsMask1023"><rect width="1440" height="560" fill="#ffffff"></rect></mask><radialGradient id="SvgjsRadialGradient1024"><stop stop-color="#ffffff" offset="0.1"></stop><stop stop-color="rgba(16, 175, 123, 1)" offset="0.2"></stop><stop stop-color="rgba(16, 175, 123, 0)" offset="1"></stop></radialGradient></defs></svg>